<?xml version="1.0" encoding="UTF-8"?>
<svg xmlns="http://www.w3.org/2000/svg" version="1.1" width="300" height="300" viewBox="0 0 300 300"><rect x="0" y="0" width="300" height="300" fill="#ffffff"/><g transform="scale(14.286)"><g transform="translate(0,0)"><path fill-rule="evenodd" d="M8 0L8 4L9 4L9 5L8 5L8 7L9 7L9 5L10 5L10 7L11 7L11 5L12 5L12 7L13 7L13 2L12 2L12 1L13 1L13 0L12 0L12 1L11 1L11 2L10 2L10 1L9 1L9 0ZM9 3L9 4L10 4L10 3ZM11 3L11 4L12 4L12 3ZM0 8L0 10L1 10L1 11L3 11L3 12L2 12L2 13L8 13L8 14L9 14L9 11L10 11L10 13L11 13L11 14L10 14L10 15L8 15L8 17L9 17L9 19L8 19L8 21L12 21L12 20L13 20L13 19L14 19L14 18L15 18L15 15L17 15L17 14L14 14L14 15L13 15L13 16L12 16L12 19L11 19L11 17L9 17L9 16L10 16L10 15L12 15L12 14L13 14L13 13L12 13L12 12L13 12L13 11L14 11L14 10L15 10L15 9L16 9L16 8L15 8L15 9L13 9L13 8L12 8L12 11L11 11L11 10L9 10L9 11L8 11L8 9L7 9L7 8L4 8L4 9L2 9L2 8ZM17 8L17 10L18 10L18 11L17 11L17 12L16 12L16 11L15 11L15 12L14 12L14 13L18 13L18 15L19 15L19 13L21 13L21 11L20 11L20 12L19 12L19 13L18 13L18 11L19 11L19 9L21 9L21 8ZM1 9L1 10L2 10L2 9ZM4 9L4 10L3 10L3 11L6 11L6 12L8 12L8 11L6 11L6 10L7 10L7 9ZM0 12L0 13L1 13L1 12ZM20 15L20 17L19 17L19 16L18 16L18 18L21 18L21 15ZM16 17L16 21L17 21L17 17ZM14 20L14 21L15 21L15 20ZM18 20L18 21L19 21L19 20ZM20 20L20 21L21 21L21 20ZM0 0L0 7L7 7L7 0ZM1 1L1 6L6 6L6 1ZM2 2L2 5L5 5L5 2ZM14 0L14 7L21 7L21 0ZM15 1L15 6L20 6L20 1ZM16 2L16 5L19 5L19 2ZM0 14L0 21L7 21L7 14ZM1 15L1 20L6 20L6 15ZM2 16L2 19L5 19L5 16Z" fill="#000000"/></g></g></svg>
